<mxfile host="app.diagrams.net" modified="2024-04-02T06:42:41.683Z" agent="Mozilla/5.0 (Windows NT 10.0; Win64; x64) AppleWebKit/537.36 (KHTML, like Gecko) Chrome/123.0.0.0 Safari/537.36" etag="WFS8LbKM_8ahW9QWyMLu" version="24.2.1" type="device">
  <diagram id="C5RBs43oDa-KdzZeNtuy" name="Page-1">
    <mxGraphModel dx="1163" dy="2927" grid="1" gridSize="10" guides="1" tooltips="1" connect="1" arrows="1" fold="1" page="1" pageScale="1" pageWidth="827" pageHeight="1169" math="0" shadow="0">
      <root>
        <mxCell id="WIyWlLk6GJQsqaUBKTNV-0" />
        <mxCell id="WIyWlLk6GJQsqaUBKTNV-1" parent="WIyWlLk6GJQsqaUBKTNV-0" />
        <mxCell id="yjtGQ7RGN0hBUd9_Rbl--0" value="김재아" style="rounded=0;whiteSpace=wrap;html=1;fillColor=#dae8fc;strokeColor=#6c8ebf;" parent="WIyWlLk6GJQsqaUBKTNV-1" vertex="1">
          <mxGeometry y="-2040" width="120" height="60" as="geometry" />
        </mxCell>
        <mxCell id="yjtGQ7RGN0hBUd9_Rbl--1" value="김종원" style="rounded=0;whiteSpace=wrap;html=1;" parent="WIyWlLk6GJQsqaUBKTNV-1" vertex="1">
          <mxGeometry y="-1690" width="120" height="60" as="geometry" />
        </mxCell>
        <mxCell id="yjtGQ7RGN0hBUd9_Rbl--2" value="박정태" style="rounded=0;whiteSpace=wrap;html=1;" parent="WIyWlLk6GJQsqaUBKTNV-1" vertex="1">
          <mxGeometry y="-1760" width="120" height="60" as="geometry" />
        </mxCell>
        <mxCell id="yjtGQ7RGN0hBUd9_Rbl--3" value="박경준" style="rounded=0;whiteSpace=wrap;html=1;fillColor=#d5e8d4;strokeColor=#82b366;" parent="WIyWlLk6GJQsqaUBKTNV-1" vertex="1">
          <mxGeometry y="-1970" width="120" height="60" as="geometry" />
        </mxCell>
        <mxCell id="yjtGQ7RGN0hBUd9_Rbl--4" value="조한홍" style="rounded=0;whiteSpace=wrap;html=1;fillColor=#ffe6cc;strokeColor=#d79b00;" parent="WIyWlLk6GJQsqaUBKTNV-1" vertex="1">
          <mxGeometry x="200" y="-1900" width="120" height="60" as="geometry" />
        </mxCell>
        <mxCell id="yjtGQ7RGN0hBUd9_Rbl--5" value="조승환" style="rounded=0;whiteSpace=wrap;html=1;fillColor=#dae8fc;strokeColor=#6c8ebf;" parent="WIyWlLk6GJQsqaUBKTNV-1" vertex="1">
          <mxGeometry x="200" y="-2040" width="120" height="60" as="geometry" />
        </mxCell>
        <mxCell id="yjtGQ7RGN0hBUd9_Rbl--6" value="박현수" style="rounded=0;whiteSpace=wrap;html=1;" parent="WIyWlLk6GJQsqaUBKTNV-1" vertex="1">
          <mxGeometry y="-1830" width="120" height="60" as="geometry" />
        </mxCell>
        <mxCell id="yjtGQ7RGN0hBUd9_Rbl--7" value="박철연" style="rounded=0;whiteSpace=wrap;html=1;" parent="WIyWlLk6GJQsqaUBKTNV-1" vertex="1">
          <mxGeometry x="200" y="-1760" width="120" height="60" as="geometry" />
        </mxCell>
        <mxCell id="yjtGQ7RGN0hBUd9_Rbl--8" value="김효진" style="rounded=0;whiteSpace=wrap;html=1;" parent="WIyWlLk6GJQsqaUBKTNV-1" vertex="1">
          <mxGeometry x="200" y="-1830" width="120" height="60" as="geometry" />
        </mxCell>
        <mxCell id="yjtGQ7RGN0hBUd9_Rbl--9" value="양혜지" style="rounded=0;whiteSpace=wrap;html=1;fillColor=#ffe6cc;strokeColor=#d79b00;" parent="WIyWlLk6GJQsqaUBKTNV-1" vertex="1">
          <mxGeometry y="-1900" width="120" height="60" as="geometry" />
        </mxCell>
        <mxCell id="yjtGQ7RGN0hBUd9_Rbl--10" value="안유정" style="rounded=0;whiteSpace=wrap;html=1;fillColor=#d5e8d4;strokeColor=#82b366;" parent="WIyWlLk6GJQsqaUBKTNV-1" vertex="1">
          <mxGeometry x="200" y="-1970" width="120" height="60" as="geometry" />
        </mxCell>
        <mxCell id="yjtGQ7RGN0hBUd9_Rbl--11" value="이정완" style="rounded=0;whiteSpace=wrap;html=1;" parent="WIyWlLk6GJQsqaUBKTNV-1" vertex="1">
          <mxGeometry x="200" y="-1690" width="120" height="60" as="geometry" />
        </mxCell>
        <mxCell id="yjtGQ7RGN0hBUd9_Rbl--12" value="확정임" style="rounded=1;whiteSpace=wrap;html=1;" parent="WIyWlLk6GJQsqaUBKTNV-1" vertex="1">
          <mxGeometry x="100" y="-2120" width="120" height="60" as="geometry" />
        </mxCell>
        <mxCell id="yjtGQ7RGN0hBUd9_Rbl--13" value="«interface»&lt;br&gt;&lt;b&gt;IUI&lt;/b&gt;&lt;div&gt;&lt;b&gt;&lt;br&gt;&lt;/b&gt;&lt;/div&gt;&lt;div&gt;&lt;b&gt;{get, set} sortingOrder : int&lt;/b&gt;&lt;/div&gt;&lt;div&gt;&lt;b&gt;{get, set} inputActionEnable : bool&lt;/b&gt;&lt;/div&gt;&lt;div&gt;&lt;b&gt;&lt;br&gt;&lt;/b&gt;&lt;/div&gt;&lt;div&gt;Show() : void&lt;/div&gt;&lt;div&gt;Hide() : void&lt;/div&gt;&lt;div&gt;InputAction() : void&lt;/div&gt;&lt;div&gt;Raycast(result : List&amp;lt;RaycastResult&amp;gt;) : bool&lt;/div&gt;" style="html=1;whiteSpace=wrap;" parent="WIyWlLk6GJQsqaUBKTNV-1" vertex="1">
          <mxGeometry x="360" y="-1304" width="265" height="190" as="geometry" />
        </mxCell>
        <mxCell id="yjtGQ7RGN0hBUd9_Rbl--16" value="UIScreenBase" style="swimlane;fontStyle=1;align=center;verticalAlign=top;childLayout=stackLayout;horizontal=1;startSize=26;horizontalStack=0;resizeParent=1;resizeParentMax=0;resizeLast=0;collapsible=1;marginBottom=0;whiteSpace=wrap;html=1;" parent="WIyWlLk6GJQsqaUBKTNV-1" vertex="1">
          <mxGeometry x="900" y="-1270" width="160" height="34" as="geometry" />
        </mxCell>
        <mxCell id="yjtGQ7RGN0hBUd9_Rbl--18" value="" style="line;strokeWidth=1;fillColor=none;align=left;verticalAlign=middle;spacingTop=-1;spacingLeft=3;spacingRight=3;rotatable=0;labelPosition=right;points=[];portConstraint=eastwest;strokeColor=inherit;" parent="yjtGQ7RGN0hBUd9_Rbl--16" vertex="1">
          <mxGeometry y="26" width="160" height="8" as="geometry" />
        </mxCell>
        <mxCell id="yjtGQ7RGN0hBUd9_Rbl--21" value="UIPopUpBase" style="swimlane;fontStyle=1;align=center;verticalAlign=top;childLayout=stackLayout;horizontal=1;startSize=26;horizontalStack=0;resizeParent=1;resizeParentMax=0;resizeLast=0;collapsible=1;marginBottom=0;whiteSpace=wrap;html=1;" parent="WIyWlLk6GJQsqaUBKTNV-1" vertex="1">
          <mxGeometry x="907" y="-1192" width="160" height="34" as="geometry" />
        </mxCell>
        <mxCell id="yjtGQ7RGN0hBUd9_Rbl--22" value="" style="line;strokeWidth=1;fillColor=none;align=left;verticalAlign=middle;spacingTop=-1;spacingLeft=3;spacingRight=3;rotatable=0;labelPosition=right;points=[];portConstraint=eastwest;strokeColor=inherit;" parent="yjtGQ7RGN0hBUd9_Rbl--21" vertex="1">
          <mxGeometry y="26" width="160" height="8" as="geometry" />
        </mxCell>
        <mxCell id="yjtGQ7RGN0hBUd9_Rbl--24" value="UIManager" style="swimlane;fontStyle=1;align=center;verticalAlign=top;childLayout=stackLayout;horizontal=1;startSize=26;horizontalStack=0;resizeParent=1;resizeParentMax=0;resizeLast=0;collapsible=1;marginBottom=0;whiteSpace=wrap;html=1;" parent="WIyWlLk6GJQsqaUBKTNV-1" vertex="1">
          <mxGeometry x="55" y="-1330" width="205" height="242" as="geometry" />
        </mxCell>
        <mxCell id="yjtGQ7RGN0hBUd9_Rbl--25" value="- uis : Dictionary&amp;lt;Type, IUI&amp;gt;" style="text;strokeColor=none;fillColor=none;align=left;verticalAlign=top;spacingLeft=4;spacingRight=4;overflow=hidden;rotatable=0;points=[[0,0.5],[1,0.5]];portConstraint=eastwest;whiteSpace=wrap;html=1;" parent="yjtGQ7RGN0hBUd9_Rbl--24" vertex="1">
          <mxGeometry y="26" width="205" height="26" as="geometry" />
        </mxCell>
        <mxCell id="yjtGQ7RGN0hBUd9_Rbl--29" value="- screens : List&amp;lt;IUI&amp;gt;" style="text;strokeColor=none;fillColor=none;align=left;verticalAlign=top;spacingLeft=4;spacingRight=4;overflow=hidden;rotatable=0;points=[[0,0.5],[1,0.5]];portConstraint=eastwest;whiteSpace=wrap;html=1;" parent="yjtGQ7RGN0hBUd9_Rbl--24" vertex="1">
          <mxGeometry y="52" width="205" height="26" as="geometry" />
        </mxCell>
        <mxCell id="yjtGQ7RGN0hBUd9_Rbl--30" value="- popups : Stack&amp;lt;IUI&amp;gt;" style="text;strokeColor=none;fillColor=none;align=left;verticalAlign=top;spacingLeft=4;spacingRight=4;overflow=hidden;rotatable=0;points=[[0,0.5],[1,0.5]];portConstraint=eastwest;whiteSpace=wrap;html=1;" parent="yjtGQ7RGN0hBUd9_Rbl--24" vertex="1">
          <mxGeometry y="78" width="205" height="26" as="geometry" />
        </mxCell>
        <mxCell id="yjtGQ7RGN0hBUd9_Rbl--26" value="" style="line;strokeWidth=1;fillColor=none;align=left;verticalAlign=middle;spacingTop=-1;spacingLeft=3;spacingRight=3;rotatable=0;labelPosition=right;points=[];portConstraint=eastwest;strokeColor=inherit;" parent="yjtGQ7RGN0hBUd9_Rbl--24" vertex="1">
          <mxGeometry y="104" width="205" height="8" as="geometry" />
        </mxCell>
        <mxCell id="yjtGQ7RGN0hBUd9_Rbl--27" value="+ RegisterScreen(ui : IUI) : void" style="text;strokeColor=none;fillColor=none;align=left;verticalAlign=top;spacingLeft=4;spacingRight=4;overflow=hidden;rotatable=0;points=[[0,0.5],[1,0.5]];portConstraint=eastwest;whiteSpace=wrap;html=1;" parent="yjtGQ7RGN0hBUd9_Rbl--24" vertex="1">
          <mxGeometry y="112" width="205" height="26" as="geometry" />
        </mxCell>
        <mxCell id="yjtGQ7RGN0hBUd9_Rbl--28" value="+ RegisterPopUp(ui : IUI) : void" style="text;strokeColor=none;fillColor=none;align=left;verticalAlign=top;spacingLeft=4;spacingRight=4;overflow=hidden;rotatable=0;points=[[0,0.5],[1,0.5]];portConstraint=eastwest;whiteSpace=wrap;html=1;" parent="yjtGQ7RGN0hBUd9_Rbl--24" vertex="1">
          <mxGeometry y="138" width="205" height="26" as="geometry" />
        </mxCell>
        <mxCell id="yjtGQ7RGN0hBUd9_Rbl--36" value="+ Get&amp;lt;T&amp;gt;() : T" style="text;strokeColor=none;fillColor=none;align=left;verticalAlign=top;spacingLeft=4;spacingRight=4;overflow=hidden;rotatable=0;points=[[0,0.5],[1,0.5]];portConstraint=eastwest;whiteSpace=wrap;html=1;" parent="yjtGQ7RGN0hBUd9_Rbl--24" vertex="1">
          <mxGeometry y="164" width="205" height="26" as="geometry" />
        </mxCell>
        <mxCell id="yjtGQ7RGN0hBUd9_Rbl--34" value="+ PushPopup(ui : IUI) : void" style="text;strokeColor=none;fillColor=none;align=left;verticalAlign=top;spacingLeft=4;spacingRight=4;overflow=hidden;rotatable=0;points=[[0,0.5],[1,0.5]];portConstraint=eastwest;whiteSpace=wrap;html=1;" parent="yjtGQ7RGN0hBUd9_Rbl--24" vertex="1">
          <mxGeometry y="190" width="205" height="26" as="geometry" />
        </mxCell>
        <mxCell id="yjtGQ7RGN0hBUd9_Rbl--35" value="+ PopPopup(ui : IUI) : void" style="text;strokeColor=none;fillColor=none;align=left;verticalAlign=top;spacingLeft=4;spacingRight=4;overflow=hidden;rotatable=0;points=[[0,0.5],[1,0.5]];portConstraint=eastwest;whiteSpace=wrap;html=1;" parent="yjtGQ7RGN0hBUd9_Rbl--24" vertex="1">
          <mxGeometry y="216" width="205" height="26" as="geometry" />
        </mxCell>
        <mxCell id="yjtGQ7RGN0hBUd9_Rbl--32" value="1" style="endArrow=open;html=1;endSize=12;startArrow=diamondThin;startSize=14;startFill=0;edgeStyle=orthogonalEdgeStyle;align=left;verticalAlign=bottom;rounded=0;" parent="WIyWlLk6GJQsqaUBKTNV-1" source="yjtGQ7RGN0hBUd9_Rbl--24" target="yjtGQ7RGN0hBUd9_Rbl--13" edge="1">
          <mxGeometry x="-1" y="3" relative="1" as="geometry">
            <mxPoint x="260" y="-1080" as="sourcePoint" />
            <mxPoint x="420" y="-1080" as="targetPoint" />
          </mxGeometry>
        </mxCell>
        <mxCell id="odvmMCuuiWnAz9NXcuGv-8" value="UIBase" style="swimlane;fontStyle=1;align=center;verticalAlign=top;childLayout=stackLayout;horizontal=1;startSize=26;horizontalStack=0;resizeParent=1;resizeParentMax=0;resizeLast=0;collapsible=1;marginBottom=0;whiteSpace=wrap;html=1;" parent="WIyWlLk6GJQsqaUBKTNV-1" vertex="1">
          <mxGeometry x="690" y="-1226" width="160" height="34" as="geometry" />
        </mxCell>
        <mxCell id="odvmMCuuiWnAz9NXcuGv-9" value="" style="line;strokeWidth=1;fillColor=none;align=left;verticalAlign=middle;spacingTop=-1;spacingLeft=3;spacingRight=3;rotatable=0;labelPosition=right;points=[];portConstraint=eastwest;strokeColor=inherit;" parent="odvmMCuuiWnAz9NXcuGv-8" vertex="1">
          <mxGeometry y="26" width="160" height="8" as="geometry" />
        </mxCell>
        <mxCell id="odvmMCuuiWnAz9NXcuGv-10" value="" style="endArrow=block;endSize=16;endFill=0;html=1;rounded=0;" parent="WIyWlLk6GJQsqaUBKTNV-1" source="odvmMCuuiWnAz9NXcuGv-8" target="yjtGQ7RGN0hBUd9_Rbl--13" edge="1">
          <mxGeometry width="160" relative="1" as="geometry">
            <mxPoint x="550" y="-1140" as="sourcePoint" />
            <mxPoint x="680" y="-1100" as="targetPoint" />
          </mxGeometry>
        </mxCell>
        <mxCell id="odvmMCuuiWnAz9NXcuGv-11" value="" style="endArrow=block;endSize=16;endFill=0;html=1;rounded=0;" parent="WIyWlLk6GJQsqaUBKTNV-1" source="yjtGQ7RGN0hBUd9_Rbl--16" target="odvmMCuuiWnAz9NXcuGv-8" edge="1">
          <mxGeometry width="160" relative="1" as="geometry">
            <mxPoint x="700" y="-1199" as="sourcePoint" />
            <mxPoint x="635" y="-1199" as="targetPoint" />
          </mxGeometry>
        </mxCell>
        <mxCell id="odvmMCuuiWnAz9NXcuGv-12" value="" style="endArrow=block;endSize=16;endFill=0;html=1;rounded=0;" parent="WIyWlLk6GJQsqaUBKTNV-1" source="yjtGQ7RGN0hBUd9_Rbl--21" target="odvmMCuuiWnAz9NXcuGv-8" edge="1">
          <mxGeometry width="160" relative="1" as="geometry">
            <mxPoint x="910" y="-1226" as="sourcePoint" />
            <mxPoint x="860" y="-1216" as="targetPoint" />
          </mxGeometry>
        </mxCell>
        <mxCell id="odvmMCuuiWnAz9NXcuGv-16" value="사자" style="html=1;whiteSpace=wrap;" parent="WIyWlLk6GJQsqaUBKTNV-1" vertex="1">
          <mxGeometry x="170" y="-960" width="110" height="50" as="geometry" />
        </mxCell>
        <mxCell id="odvmMCuuiWnAz9NXcuGv-19" value="흑인" style="html=1;whiteSpace=wrap;" parent="WIyWlLk6GJQsqaUBKTNV-1" vertex="1">
          <mxGeometry x="55" y="-900" width="110" height="50" as="geometry" />
        </mxCell>
        <mxCell id="odvmMCuuiWnAz9NXcuGv-20" value="독수리" style="html=1;whiteSpace=wrap;" parent="WIyWlLk6GJQsqaUBKTNV-1" vertex="1">
          <mxGeometry x="170" y="-900" width="110" height="50" as="geometry" />
        </mxCell>
        <mxCell id="odvmMCuuiWnAz9NXcuGv-21" value="비둘기" style="html=1;whiteSpace=wrap;" parent="WIyWlLk6GJQsqaUBKTNV-1" vertex="1">
          <mxGeometry x="170" y="-840" width="110" height="50" as="geometry" />
        </mxCell>
        <mxCell id="odvmMCuuiWnAz9NXcuGv-22" value="객체 선정&lt;div&gt;(우리 프로그램에 필요한 객체들 나열&lt;/div&gt;" style="html=1;whiteSpace=wrap;" parent="WIyWlLk6GJQsqaUBKTNV-1" vertex="1">
          <mxGeometry x="60" y="-1030" width="220" height="50" as="geometry" />
        </mxCell>
        <mxCell id="odvmMCuuiWnAz9NXcuGv-23" value="추상화&lt;div&gt;(공통적인 특징을 묶어서 추상적인 개념만들기)&lt;/div&gt;" style="html=1;whiteSpace=wrap;" parent="WIyWlLk6GJQsqaUBKTNV-1" vertex="1">
          <mxGeometry x="435" y="-1030" width="220" height="50" as="geometry" />
        </mxCell>
        <mxCell id="odvmMCuuiWnAz9NXcuGv-24" value="Creature" style="html=1;whiteSpace=wrap;" parent="WIyWlLk6GJQsqaUBKTNV-1" vertex="1">
          <mxGeometry x="490" y="-960" width="110" height="50" as="geometry" />
        </mxCell>
        <mxCell id="odvmMCuuiWnAz9NXcuGv-25" value="황인" style="html=1;whiteSpace=wrap;" parent="WIyWlLk6GJQsqaUBKTNV-1" vertex="1">
          <mxGeometry x="55" y="-840" width="110" height="50" as="geometry" />
        </mxCell>
        <mxCell id="odvmMCuuiWnAz9NXcuGv-26" value="Human" style="html=1;whiteSpace=wrap;" parent="WIyWlLk6GJQsqaUBKTNV-1" vertex="1">
          <mxGeometry x="350" y="-880" width="110" height="50" as="geometry" />
        </mxCell>
        <mxCell id="odvmMCuuiWnAz9NXcuGv-27" value="Animal" style="html=1;whiteSpace=wrap;" parent="WIyWlLk6GJQsqaUBKTNV-1" vertex="1">
          <mxGeometry x="610" y="-880" width="110" height="50" as="geometry" />
        </mxCell>
        <mxCell id="odvmMCuuiWnAz9NXcuGv-28" value="Black" style="html=1;whiteSpace=wrap;" parent="WIyWlLk6GJQsqaUBKTNV-1" vertex="1">
          <mxGeometry x="300" y="-790" width="110" height="50" as="geometry" />
        </mxCell>
        <mxCell id="odvmMCuuiWnAz9NXcuGv-29" value="Yellow" style="html=1;whiteSpace=wrap;" parent="WIyWlLk6GJQsqaUBKTNV-1" vertex="1">
          <mxGeometry x="415" y="-790" width="110" height="50" as="geometry" />
        </mxCell>
        <mxCell id="odvmMCuuiWnAz9NXcuGv-30" value="Cat" style="html=1;whiteSpace=wrap;" parent="WIyWlLk6GJQsqaUBKTNV-1" vertex="1">
          <mxGeometry x="580" y="-790" width="110" height="50" as="geometry" />
        </mxCell>
        <mxCell id="odvmMCuuiWnAz9NXcuGv-31" value="Bird" style="html=1;whiteSpace=wrap;" parent="WIyWlLk6GJQsqaUBKTNV-1" vertex="1">
          <mxGeometry x="710" y="-790" width="110" height="50" as="geometry" />
        </mxCell>
        <mxCell id="odvmMCuuiWnAz9NXcuGv-32" value="독수리" style="html=1;whiteSpace=wrap;" parent="WIyWlLk6GJQsqaUBKTNV-1" vertex="1">
          <mxGeometry x="690" y="-700" width="110" height="50" as="geometry" />
        </mxCell>
        <mxCell id="odvmMCuuiWnAz9NXcuGv-33" value="비둘기" style="html=1;whiteSpace=wrap;" parent="WIyWlLk6GJQsqaUBKTNV-1" vertex="1">
          <mxGeometry x="820" y="-700" width="110" height="50" as="geometry" />
        </mxCell>
        <mxCell id="odvmMCuuiWnAz9NXcuGv-34" value="펭귄" style="html=1;whiteSpace=wrap;" parent="WIyWlLk6GJQsqaUBKTNV-1" vertex="1">
          <mxGeometry x="55" y="-960" width="110" height="50" as="geometry" />
        </mxCell>
        <mxCell id="odvmMCuuiWnAz9NXcuGv-35" value="펭귄" style="html=1;whiteSpace=wrap;" parent="WIyWlLk6GJQsqaUBKTNV-1" vertex="1">
          <mxGeometry x="940" y="-700" width="110" height="50" as="geometry" />
        </mxCell>
        <mxCell id="odvmMCuuiWnAz9NXcuGv-41" value="«interface»&lt;br&gt;&lt;b&gt;IFlyable&lt;/b&gt;&lt;div&gt;&lt;b&gt;&lt;br&gt;&lt;/b&gt;&lt;/div&gt;&lt;div&gt;&lt;b&gt;날기()&lt;/b&gt;&lt;/div&gt;" style="html=1;whiteSpace=wrap;" parent="WIyWlLk6GJQsqaUBKTNV-1" vertex="1">
          <mxGeometry x="800" y="-980" width="128" height="70" as="geometry" />
        </mxCell>
        <mxCell id="odvmMCuuiWnAz9NXcuGv-42" value="" style="endArrow=block;endSize=16;endFill=0;html=1;rounded=0;" parent="WIyWlLk6GJQsqaUBKTNV-1" source="odvmMCuuiWnAz9NXcuGv-27" target="odvmMCuuiWnAz9NXcuGv-24" edge="1">
          <mxGeometry width="160" relative="1" as="geometry">
            <mxPoint x="755" y="-990" as="sourcePoint" />
            <mxPoint x="690" y="-990" as="targetPoint" />
          </mxGeometry>
        </mxCell>
        <mxCell id="odvmMCuuiWnAz9NXcuGv-43" value="" style="endArrow=block;endSize=16;endFill=0;html=1;rounded=0;" parent="WIyWlLk6GJQsqaUBKTNV-1" source="odvmMCuuiWnAz9NXcuGv-30" target="odvmMCuuiWnAz9NXcuGv-27" edge="1">
          <mxGeometry width="160" relative="1" as="geometry">
            <mxPoint x="638" y="-870" as="sourcePoint" />
            <mxPoint x="593" y="-900" as="targetPoint" />
          </mxGeometry>
        </mxCell>
        <mxCell id="odvmMCuuiWnAz9NXcuGv-44" value="" style="endArrow=block;endSize=16;endFill=0;html=1;rounded=0;" parent="WIyWlLk6GJQsqaUBKTNV-1" source="odvmMCuuiWnAz9NXcuGv-31" target="odvmMCuuiWnAz9NXcuGv-27" edge="1">
          <mxGeometry width="160" relative="1" as="geometry">
            <mxPoint x="653" y="-780" as="sourcePoint" />
            <mxPoint x="667" y="-820" as="targetPoint" />
          </mxGeometry>
        </mxCell>
        <mxCell id="odvmMCuuiWnAz9NXcuGv-45" value="" style="endArrow=block;endSize=16;endFill=0;html=1;rounded=0;" parent="WIyWlLk6GJQsqaUBKTNV-1" source="odvmMCuuiWnAz9NXcuGv-32" target="odvmMCuuiWnAz9NXcuGv-31" edge="1">
          <mxGeometry width="160" relative="1" as="geometry">
            <mxPoint x="747" y="-780" as="sourcePoint" />
            <mxPoint x="703" y="-820" as="targetPoint" />
          </mxGeometry>
        </mxCell>
        <mxCell id="odvmMCuuiWnAz9NXcuGv-46" value="" style="endArrow=block;endSize=16;endFill=0;html=1;rounded=0;" parent="WIyWlLk6GJQsqaUBKTNV-1" source="odvmMCuuiWnAz9NXcuGv-33" target="odvmMCuuiWnAz9NXcuGv-31" edge="1">
          <mxGeometry width="160" relative="1" as="geometry">
            <mxPoint x="761" y="-690" as="sourcePoint" />
            <mxPoint x="769" y="-730" as="targetPoint" />
          </mxGeometry>
        </mxCell>
        <mxCell id="odvmMCuuiWnAz9NXcuGv-47" value="" style="endArrow=block;endSize=16;endFill=0;html=1;rounded=0;" parent="WIyWlLk6GJQsqaUBKTNV-1" source="odvmMCuuiWnAz9NXcuGv-35" target="odvmMCuuiWnAz9NXcuGv-31" edge="1">
          <mxGeometry width="160" relative="1" as="geometry">
            <mxPoint x="854" y="-690" as="sourcePoint" />
            <mxPoint x="806" y="-730" as="targetPoint" />
          </mxGeometry>
        </mxCell>
        <mxCell id="odvmMCuuiWnAz9NXcuGv-48" value="" style="endArrow=block;endSize=16;endFill=0;html=1;rounded=0;fillColor=#f8cecc;strokeColor=#b85450;" parent="WIyWlLk6GJQsqaUBKTNV-1" source="odvmMCuuiWnAz9NXcuGv-32" target="odvmMCuuiWnAz9NXcuGv-41" edge="1">
          <mxGeometry width="160" relative="1" as="geometry">
            <mxPoint x="950" y="-687" as="sourcePoint" />
            <mxPoint x="830" y="-733" as="targetPoint" />
          </mxGeometry>
        </mxCell>
        <mxCell id="odvmMCuuiWnAz9NXcuGv-49" value="" style="endArrow=block;endSize=16;endFill=0;html=1;rounded=0;fillColor=#f8cecc;strokeColor=#b85450;" parent="WIyWlLk6GJQsqaUBKTNV-1" source="odvmMCuuiWnAz9NXcuGv-33" target="odvmMCuuiWnAz9NXcuGv-41" edge="1">
          <mxGeometry width="160" relative="1" as="geometry">
            <mxPoint x="778" y="-690" as="sourcePoint" />
            <mxPoint x="949" y="-880" as="targetPoint" />
          </mxGeometry>
        </mxCell>
        <mxCell id="odvmMCuuiWnAz9NXcuGv-50" value="«interface»&lt;br&gt;&lt;b&gt;ITwoLegWalkable&lt;/b&gt;&lt;div&gt;&lt;b&gt;&lt;br&gt;&lt;/b&gt;&lt;/div&gt;&lt;div&gt;&lt;b&gt;이족보행()&lt;/b&gt;&lt;/div&gt;" style="html=1;whiteSpace=wrap;" parent="WIyWlLk6GJQsqaUBKTNV-1" vertex="1">
          <mxGeometry x="932" y="-980" width="128" height="70" as="geometry" />
        </mxCell>
        <mxCell id="odvmMCuuiWnAz9NXcuGv-51" value="«interface»&lt;br&gt;&lt;b&gt;IFourLegWalkable&lt;/b&gt;&lt;div&gt;&lt;b&gt;&lt;br&gt;&lt;/b&gt;&lt;/div&gt;&lt;div&gt;&lt;b&gt;사족보행()&lt;/b&gt;&lt;/div&gt;" style="html=1;whiteSpace=wrap;" parent="WIyWlLk6GJQsqaUBKTNV-1" vertex="1">
          <mxGeometry x="1067" y="-980" width="128" height="70" as="geometry" />
        </mxCell>
        <mxCell id="odvmMCuuiWnAz9NXcuGv-52" value="" style="endArrow=block;endSize=16;endFill=0;html=1;rounded=0;fillColor=#dae8fc;strokeColor=#6c8ebf;" parent="WIyWlLk6GJQsqaUBKTNV-1" source="odvmMCuuiWnAz9NXcuGv-32" target="odvmMCuuiWnAz9NXcuGv-50" edge="1">
          <mxGeometry width="160" relative="1" as="geometry">
            <mxPoint x="760" y="-680" as="sourcePoint" />
            <mxPoint x="859" y="-900" as="targetPoint" />
          </mxGeometry>
        </mxCell>
        <mxCell id="odvmMCuuiWnAz9NXcuGv-53" value="" style="endArrow=block;endSize=16;endFill=0;html=1;rounded=0;fillColor=#dae8fc;strokeColor=#6c8ebf;" parent="WIyWlLk6GJQsqaUBKTNV-1" source="odvmMCuuiWnAz9NXcuGv-33" target="odvmMCuuiWnAz9NXcuGv-50" edge="1">
          <mxGeometry width="160" relative="1" as="geometry">
            <mxPoint x="778" y="-690" as="sourcePoint" />
            <mxPoint x="973" y="-900" as="targetPoint" />
          </mxGeometry>
        </mxCell>
        <mxCell id="odvmMCuuiWnAz9NXcuGv-54" value="" style="endArrow=block;endSize=16;endFill=0;html=1;rounded=0;fillColor=#dae8fc;strokeColor=#6c8ebf;" parent="WIyWlLk6GJQsqaUBKTNV-1" source="odvmMCuuiWnAz9NXcuGv-35" target="odvmMCuuiWnAz9NXcuGv-50" edge="1">
          <mxGeometry width="160" relative="1" as="geometry">
            <mxPoint x="896" y="-690" as="sourcePoint" />
            <mxPoint x="990" y="-900" as="targetPoint" />
          </mxGeometry>
        </mxCell>
        <mxCell id="odvmMCuuiWnAz9NXcuGv-55" value="" style="endArrow=block;endSize=16;endFill=0;html=1;rounded=0;fillColor=#dae8fc;strokeColor=#6c8ebf;" parent="WIyWlLk6GJQsqaUBKTNV-1" source="odvmMCuuiWnAz9NXcuGv-26" target="odvmMCuuiWnAz9NXcuGv-50" edge="1">
          <mxGeometry width="160" relative="1" as="geometry">
            <mxPoint x="1005" y="-690" as="sourcePoint" />
            <mxPoint x="1006" y="-900" as="targetPoint" />
          </mxGeometry>
        </mxCell>
        <mxCell id="odvmMCuuiWnAz9NXcuGv-56" value="" style="endArrow=block;endSize=16;endFill=0;html=1;rounded=0;fillColor=#e1d5e7;strokeColor=#9673a6;" parent="WIyWlLk6GJQsqaUBKTNV-1" source="odvmMCuuiWnAz9NXcuGv-30" target="odvmMCuuiWnAz9NXcuGv-51" edge="1">
          <mxGeometry width="160" relative="1" as="geometry">
            <mxPoint x="470" y="-853" as="sourcePoint" />
            <mxPoint x="942" y="-925" as="targetPoint" />
          </mxGeometry>
        </mxCell>
        <mxCell id="odvmMCuuiWnAz9NXcuGv-57" value="클래스화&lt;div&gt;(코드로 옮기기)&lt;/div&gt;" style="html=1;whiteSpace=wrap;" parent="WIyWlLk6GJQsqaUBKTNV-1" vertex="1">
          <mxGeometry x="1230" y="-1040" width="220" height="50" as="geometry" />
        </mxCell>
        <mxCell id="4FBymZZ33MyvLedHuFP5-0" value="UI Management" style="rounded=1;whiteSpace=wrap;html=1;fillColor=#1ba1e2;strokeColor=#006EAF;fontColor=#ffffff;" parent="WIyWlLk6GJQsqaUBKTNV-1" vertex="1">
          <mxGeometry x="30" y="-1410" width="120" height="60" as="geometry" />
        </mxCell>
        <mxCell id="4FBymZZ33MyvLedHuFP5-1" value="Network" style="rounded=1;whiteSpace=wrap;html=1;fillColor=#1ba1e2;strokeColor=#006EAF;fontColor=#ffffff;" parent="WIyWlLk6GJQsqaUBKTNV-1" vertex="1">
          <mxGeometry x="1670" y="-1440" width="120" height="60" as="geometry" />
        </mxCell>
        <mxCell id="4FBymZZ33MyvLedHuFP5-2" value="" style="endArrow=none;html=1;rounded=0;" parent="WIyWlLk6GJQsqaUBKTNV-1" edge="1">
          <mxGeometry width="50" height="50" relative="1" as="geometry">
            <mxPoint x="1820" y="-1280" as="sourcePoint" />
            <mxPoint x="2240" y="-1280" as="targetPoint" />
          </mxGeometry>
        </mxCell>
        <mxCell id="4FBymZZ33MyvLedHuFP5-3" value="" style="endArrow=none;html=1;rounded=0;" parent="WIyWlLk6GJQsqaUBKTNV-1" edge="1">
          <mxGeometry width="50" height="50" relative="1" as="geometry">
            <mxPoint x="1720" y="-1169" as="sourcePoint" />
            <mxPoint x="2240" y="-1169" as="targetPoint" />
          </mxGeometry>
        </mxCell>
        <mxCell id="4FBymZZ33MyvLedHuFP5-4" value="HW" style="text;html=1;align=center;verticalAlign=middle;whiteSpace=wrap;rounded=0;" parent="WIyWlLk6GJQsqaUBKTNV-1" vertex="1">
          <mxGeometry x="1730" y="-1158" width="60" height="30" as="geometry" />
        </mxCell>
        <mxCell id="4FBymZZ33MyvLedHuFP5-5" value="SW" style="text;html=1;align=center;verticalAlign=middle;whiteSpace=wrap;rounded=0;" parent="WIyWlLk6GJQsqaUBKTNV-1" vertex="1">
          <mxGeometry x="1730" y="-1220" width="60" height="30" as="geometry" />
        </mxCell>
        <mxCell id="4FBymZZ33MyvLedHuFP5-6" value="Kernal&lt;br&gt;(OS program)" style="text;html=1;align=center;verticalAlign=middle;whiteSpace=wrap;rounded=0;" parent="WIyWlLk6GJQsqaUBKTNV-1" vertex="1">
          <mxGeometry x="1810" y="-1220" width="80" height="30" as="geometry" />
        </mxCell>
        <mxCell id="4FBymZZ33MyvLedHuFP5-7" value="User" style="text;html=1;align=center;verticalAlign=middle;whiteSpace=wrap;rounded=0;" parent="WIyWlLk6GJQsqaUBKTNV-1" vertex="1">
          <mxGeometry x="1830" y="-1320" width="60" height="30" as="geometry" />
        </mxCell>
        <mxCell id="4FBymZZ33MyvLedHuFP5-8" value="Application" style="rounded=0;whiteSpace=wrap;html=1;" parent="WIyWlLk6GJQsqaUBKTNV-1" vertex="1">
          <mxGeometry x="1920" y="-1350" width="120" height="60" as="geometry" />
        </mxCell>
        <mxCell id="4FBymZZ33MyvLedHuFP5-9" value="NIC&lt;div&gt;(Network&lt;br&gt;Interface&lt;br&gt;Controller)&lt;/div&gt;" style="rounded=0;whiteSpace=wrap;html=1;" parent="WIyWlLk6GJQsqaUBKTNV-1" vertex="1">
          <mxGeometry x="1920" y="-1158" width="120" height="60" as="geometry" />
        </mxCell>
        <mxCell id="4FBymZZ33MyvLedHuFP5-10" value="Network" style="rounded=0;whiteSpace=wrap;html=1;" parent="WIyWlLk6GJQsqaUBKTNV-1" vertex="1">
          <mxGeometry x="1920" y="-1220" width="120" height="41" as="geometry" />
        </mxCell>
        <mxCell id="4FBymZZ33MyvLedHuFP5-11" value="Transport" style="rounded=0;whiteSpace=wrap;html=1;" parent="WIyWlLk6GJQsqaUBKTNV-1" vertex="1">
          <mxGeometry x="1920" y="-1270" width="120" height="41" as="geometry" />
        </mxCell>
        <mxCell id="4FBymZZ33MyvLedHuFP5-12" value="IP&amp;nbsp;&lt;div&gt;address&lt;/div&gt;" style="text;html=1;align=center;verticalAlign=middle;whiteSpace=wrap;rounded=0;" parent="WIyWlLk6GJQsqaUBKTNV-1" vertex="1">
          <mxGeometry x="2060" y="-1214.5" width="80" height="30" as="geometry" />
        </mxCell>
        <mxCell id="4FBymZZ33MyvLedHuFP5-13" value="TCP, UDP" style="text;html=1;align=center;verticalAlign=middle;whiteSpace=wrap;rounded=0;" parent="WIyWlLk6GJQsqaUBKTNV-1" vertex="1">
          <mxGeometry x="2060" y="-1264.5" width="80" height="30" as="geometry" />
        </mxCell>
        <mxCell id="4FBymZZ33MyvLedHuFP5-14" value="" style="curved=1;endArrow=classic;html=1;rounded=0;" parent="WIyWlLk6GJQsqaUBKTNV-1" edge="1">
          <mxGeometry width="50" height="50" relative="1" as="geometry">
            <mxPoint x="1670" y="-998" as="sourcePoint" />
            <mxPoint x="2000" y="-1098" as="targetPoint" />
            <Array as="points">
              <mxPoint x="1830" y="-998" />
              <mxPoint x="1860" y="-1008" />
            </Array>
          </mxGeometry>
        </mxCell>
        <mxCell id="4FBymZZ33MyvLedHuFP5-15" value="" style="curved=1;endArrow=none;html=1;rounded=0;startArrow=classic;startFill=1;endFill=0;" parent="WIyWlLk6GJQsqaUBKTNV-1" edge="1">
          <mxGeometry width="50" height="50" relative="1" as="geometry">
            <mxPoint x="1654" y="-998" as="sourcePoint" />
            <mxPoint x="1984" y="-1098" as="targetPoint" />
            <Array as="points">
              <mxPoint x="1814" y="-998" />
              <mxPoint x="1844" y="-1008" />
            </Array>
          </mxGeometry>
        </mxCell>
        <mxCell id="4FBymZZ33MyvLedHuFP5-16" value="Socket" style="rounded=0;whiteSpace=wrap;html=1;" parent="WIyWlLk6GJQsqaUBKTNV-1" vertex="1">
          <mxGeometry x="2060" y="-1290" width="80" height="15" as="geometry" />
        </mxCell>
        <mxCell id="4FBymZZ33MyvLedHuFP5-17" value="MAC&lt;div&gt;address&lt;/div&gt;" style="text;html=1;align=center;verticalAlign=middle;whiteSpace=wrap;rounded=0;" parent="WIyWlLk6GJQsqaUBKTNV-1" vertex="1">
          <mxGeometry x="2060" y="-1143" width="80" height="30" as="geometry" />
        </mxCell>
        <mxCell id="4FBymZZ33MyvLedHuFP5-18" value="Process" style="text;html=1;align=center;verticalAlign=middle;whiteSpace=wrap;rounded=0;" parent="WIyWlLk6GJQsqaUBKTNV-1" vertex="1">
          <mxGeometry x="2060" y="-1335" width="80" height="30" as="geometry" />
        </mxCell>
        <mxCell id="4FBymZZ33MyvLedHuFP5-19" value="Stream" style="text;html=1;align=center;verticalAlign=middle;whiteSpace=wrap;rounded=0;fillColor=#f5f5f5;gradientColor=#b3b3b3;strokeColor=#666666;" parent="WIyWlLk6GJQsqaUBKTNV-1" vertex="1">
          <mxGeometry x="2180" y="-1335" width="80" height="30" as="geometry" />
        </mxCell>
        <mxCell id="4FBymZZ33MyvLedHuFP5-21" value="Segment" style="text;html=1;align=center;verticalAlign=middle;whiteSpace=wrap;rounded=0;fillColor=#f5f5f5;gradientColor=#b3b3b3;strokeColor=#666666;" parent="WIyWlLk6GJQsqaUBKTNV-1" vertex="1">
          <mxGeometry x="2180" y="-1268" width="80" height="30" as="geometry" />
        </mxCell>
        <mxCell id="4FBymZZ33MyvLedHuFP5-22" value="Packet" style="text;html=1;align=center;verticalAlign=middle;whiteSpace=wrap;rounded=0;fillColor=#f5f5f5;gradientColor=#b3b3b3;strokeColor=#666666;" parent="WIyWlLk6GJQsqaUBKTNV-1" vertex="1">
          <mxGeometry x="2180" y="-1214.5" width="80" height="30" as="geometry" />
        </mxCell>
        <mxCell id="4FBymZZ33MyvLedHuFP5-23" value="Frame" style="text;html=1;align=center;verticalAlign=middle;whiteSpace=wrap;rounded=0;fillColor=#f5f5f5;gradientColor=#b3b3b3;strokeColor=#666666;" parent="WIyWlLk6GJQsqaUBKTNV-1" vertex="1">
          <mxGeometry x="2180" y="-1144" width="80" height="30" as="geometry" />
        </mxCell>
        <mxCell id="4FBymZZ33MyvLedHuFP5-24" value="데이터 처리 방식 구현" style="text;html=1;align=center;verticalAlign=middle;whiteSpace=wrap;rounded=0;fillColor=#dae8fc;gradientColor=#7ea6e0;strokeColor=#6c8ebf;" parent="WIyWlLk6GJQsqaUBKTNV-1" vertex="1">
          <mxGeometry x="2039" y="-1410" width="122" height="30" as="geometry" />
        </mxCell>
        <mxCell id="4FBymZZ33MyvLedHuFP5-25" value="데이터 단위" style="text;html=1;align=center;verticalAlign=middle;whiteSpace=wrap;rounded=0;fillColor=#dae8fc;gradientColor=#7ea6e0;strokeColor=#6c8ebf;" parent="WIyWlLk6GJQsqaUBKTNV-1" vertex="1">
          <mxGeometry x="2170" y="-1410" width="100" height="30" as="geometry" />
        </mxCell>
        <mxCell id="4FBymZZ33MyvLedHuFP5-26" value="계층" style="text;html=1;align=center;verticalAlign=middle;whiteSpace=wrap;rounded=0;fillColor=#dae8fc;gradientColor=#7ea6e0;strokeColor=#6c8ebf;" parent="WIyWlLk6GJQsqaUBKTNV-1" vertex="1">
          <mxGeometry x="1920" y="-1410" width="110" height="30" as="geometry" />
        </mxCell>
        <mxCell id="4FBymZZ33MyvLedHuFP5-27" value="Port" style="rounded=0;whiteSpace=wrap;html=1;" parent="WIyWlLk6GJQsqaUBKTNV-1" vertex="1">
          <mxGeometry x="2060" y="-1304" width="40" height="15" as="geometry" />
        </mxCell>
        <mxCell id="4FBymZZ33MyvLedHuFP5-28" value="Port" style="rounded=0;whiteSpace=wrap;html=1;" parent="WIyWlLk6GJQsqaUBKTNV-1" vertex="1">
          <mxGeometry x="2100" y="-1305" width="40" height="15" as="geometry" />
        </mxCell>
        <mxCell id="4FBymZZ33MyvLedHuFP5-29" value="MTU(Max Transport Unit)&lt;br&gt;1500 bytes" style="text;html=1;align=center;verticalAlign=middle;whiteSpace=wrap;rounded=0;" parent="WIyWlLk6GJQsqaUBKTNV-1" vertex="1">
          <mxGeometry x="2680" y="-1276" width="170" height="40" as="geometry" />
        </mxCell>
        <mxCell id="4FBymZZ33MyvLedHuFP5-30" value="전송하고싶은 데이터" style="text;html=1;align=center;verticalAlign=middle;whiteSpace=wrap;rounded=0;fillColor=#dae8fc;strokeColor=#6c8ebf;" parent="WIyWlLk6GJQsqaUBKTNV-1" vertex="1">
          <mxGeometry x="2300" y="-1335" width="340" height="40" as="geometry" />
        </mxCell>
        <mxCell id="4FBymZZ33MyvLedHuFP5-31" value="전송하고싶은 데이터를&amp;nbsp;&lt;div&gt;MTU 단위로 쪼갠 데이터&lt;/div&gt;" style="text;html=1;align=center;verticalAlign=middle;whiteSpace=wrap;rounded=0;fillColor=#b1ddf0;strokeColor=#10739e;" parent="WIyWlLk6GJQsqaUBKTNV-1" vertex="1">
          <mxGeometry x="2420" y="-1273" width="170" height="40" as="geometry" />
        </mxCell>
        <mxCell id="4FBymZZ33MyvLedHuFP5-34" value="전송 프로토콜 헤더" style="text;html=1;align=center;verticalAlign=middle;whiteSpace=wrap;rounded=0;fillColor=#fad7ac;strokeColor=#b46504;" parent="WIyWlLk6GJQsqaUBKTNV-1" vertex="1">
          <mxGeometry x="2300" y="-1273" width="120" height="40" as="geometry" />
        </mxCell>
        <mxCell id="4FBymZZ33MyvLedHuFP5-36" value="전송하고싶은 데이터를&amp;nbsp;&lt;div&gt;MTU 단위로 쪼갠 데이터&lt;/div&gt;" style="text;html=1;align=center;verticalAlign=middle;whiteSpace=wrap;rounded=0;fillColor=#b1ddf0;strokeColor=#10739e;" parent="WIyWlLk6GJQsqaUBKTNV-1" vertex="1">
          <mxGeometry x="2540" y="-1219" width="170" height="40" as="geometry" />
        </mxCell>
        <mxCell id="4FBymZZ33MyvLedHuFP5-37" value="전송 프로토콜 헤더" style="text;html=1;align=center;verticalAlign=middle;whiteSpace=wrap;rounded=0;fillColor=#fad7ac;strokeColor=#b46504;" parent="WIyWlLk6GJQsqaUBKTNV-1" vertex="1">
          <mxGeometry x="2420" y="-1219" width="120" height="40" as="geometry" />
        </mxCell>
        <mxCell id="4FBymZZ33MyvLedHuFP5-38" value="네트워크 주소 헤더" style="text;html=1;align=center;verticalAlign=middle;whiteSpace=wrap;rounded=0;fillColor=#fad9d5;strokeColor=#ae4132;" parent="WIyWlLk6GJQsqaUBKTNV-1" vertex="1">
          <mxGeometry x="2300" y="-1219" width="120" height="40" as="geometry" />
        </mxCell>
        <mxCell id="4FBymZZ33MyvLedHuFP5-39" value="전송하고싶은 데이터를&amp;nbsp;&lt;div&gt;MTU 단위로 쪼갠 데이터&lt;/div&gt;" style="text;html=1;align=center;verticalAlign=middle;whiteSpace=wrap;rounded=0;fillColor=#b1ddf0;strokeColor=#10739e;" parent="WIyWlLk6GJQsqaUBKTNV-1" vertex="1">
          <mxGeometry x="2600" y="-1148" width="170" height="40" as="geometry" />
        </mxCell>
        <mxCell id="4FBymZZ33MyvLedHuFP5-40" value="전송 프로토콜 헤더" style="text;html=1;align=center;verticalAlign=middle;whiteSpace=wrap;rounded=0;fillColor=#fad7ac;strokeColor=#b46504;" parent="WIyWlLk6GJQsqaUBKTNV-1" vertex="1">
          <mxGeometry x="2480" y="-1148" width="120" height="40" as="geometry" />
        </mxCell>
        <mxCell id="4FBymZZ33MyvLedHuFP5-41" value="네트워크 주소 헤더" style="text;html=1;align=center;verticalAlign=middle;whiteSpace=wrap;rounded=0;fillColor=#fad9d5;strokeColor=#ae4132;" parent="WIyWlLk6GJQsqaUBKTNV-1" vertex="1">
          <mxGeometry x="2360" y="-1148" width="120" height="40" as="geometry" />
        </mxCell>
        <mxCell id="4FBymZZ33MyvLedHuFP5-42" value="프레임&lt;div&gt;시작&lt;/div&gt;" style="text;html=1;align=center;verticalAlign=middle;whiteSpace=wrap;rounded=0;fillColor=#b0e3e6;strokeColor=#0e8088;" parent="WIyWlLk6GJQsqaUBKTNV-1" vertex="1">
          <mxGeometry x="2300" y="-1148" width="60" height="40" as="geometry" />
        </mxCell>
        <mxCell id="4FBymZZ33MyvLedHuFP5-43" value="프레임&lt;div&gt;끝&lt;/div&gt;" style="text;html=1;align=center;verticalAlign=middle;whiteSpace=wrap;rounded=0;fillColor=#b0e3e6;strokeColor=#0e8088;" parent="WIyWlLk6GJQsqaUBKTNV-1" vertex="1">
          <mxGeometry x="2770" y="-1148" width="60" height="40" as="geometry" />
        </mxCell>
        <mxCell id="4FBymZZ33MyvLedHuFP5-44" value="" style="curved=1;endArrow=none;html=1;rounded=0;startArrow=classic;startFill=1;endFill=0;exitX=1;exitY=0.5;exitDx=0;exitDy=0;" parent="WIyWlLk6GJQsqaUBKTNV-1" source="4FBymZZ33MyvLedHuFP5-31" edge="1">
          <mxGeometry width="50" height="50" relative="1" as="geometry">
            <mxPoint x="2500" y="-1370" as="sourcePoint" />
            <mxPoint x="2720" y="-1380" as="targetPoint" />
            <Array as="points">
              <mxPoint x="2760" y="-1320" />
              <mxPoint x="2690" y="-1380" />
            </Array>
          </mxGeometry>
        </mxCell>
        <mxCell id="4FBymZZ33MyvLedHuFP5-45" value="Payload" style="text;html=1;align=center;verticalAlign=middle;whiteSpace=wrap;rounded=0;" parent="WIyWlLk6GJQsqaUBKTNV-1" vertex="1">
          <mxGeometry x="2720" y="-1400" width="60" height="30" as="geometry" />
        </mxCell>
        <mxCell id="4FBymZZ33MyvLedHuFP5-46" value="Host : 네트워크 연결된 주체" style="text;html=1;align=center;verticalAlign=middle;whiteSpace=wrap;rounded=0;fillColor=#fad7ac;strokeColor=#b46504;" parent="WIyWlLk6GJQsqaUBKTNV-1" vertex="1">
          <mxGeometry x="1780" y="-930" width="260" height="30" as="geometry" />
        </mxCell>
        <mxCell id="4FBymZZ33MyvLedHuFP5-47" value="EndPoint (단말) : 네트워크 이용자" style="text;html=1;align=center;verticalAlign=middle;whiteSpace=wrap;rounded=0;fillColor=#fad7ac;strokeColor=#b46504;" parent="WIyWlLk6GJQsqaUBKTNV-1" vertex="1">
          <mxGeometry x="1720" y="-840" width="200" height="30" as="geometry" />
        </mxCell>
        <mxCell id="4FBymZZ33MyvLedHuFP5-48" value="네트워크 제공자" style="text;html=1;align=center;verticalAlign=middle;whiteSpace=wrap;rounded=0;fillColor=#fad7ac;strokeColor=#b46504;" parent="WIyWlLk6GJQsqaUBKTNV-1" vertex="1">
          <mxGeometry x="1961" y="-840" width="200" height="30" as="geometry" />
        </mxCell>
        <mxCell id="4FBymZZ33MyvLedHuFP5-49" value="Router" style="text;html=1;align=center;verticalAlign=middle;whiteSpace=wrap;rounded=0;fillColor=#fad7ac;strokeColor=#b46504;" parent="WIyWlLk6GJQsqaUBKTNV-1" vertex="1">
          <mxGeometry x="1961" y="-790" width="200" height="30" as="geometry" />
        </mxCell>
        <mxCell id="4FBymZZ33MyvLedHuFP5-50" value="Client : 네트워크 이용 목적이 &quot;요청&quot;" style="text;html=1;align=center;verticalAlign=middle;whiteSpace=wrap;rounded=0;fillColor=#fad7ac;strokeColor=#b46504;" parent="WIyWlLk6GJQsqaUBKTNV-1" vertex="1">
          <mxGeometry x="1720" y="-790" width="200" height="30" as="geometry" />
        </mxCell>
        <mxCell id="4FBymZZ33MyvLedHuFP5-51" value="Server : 네트워크 이용 목적이 &quot;응답&quot;" style="text;html=1;align=center;verticalAlign=middle;whiteSpace=wrap;rounded=0;fillColor=#fad7ac;strokeColor=#b46504;" parent="WIyWlLk6GJQsqaUBKTNV-1" vertex="1">
          <mxGeometry x="1720" y="-750" width="200" height="30" as="geometry" />
        </mxCell>
        <mxCell id="4FBymZZ33MyvLedHuFP5-52" value="Peer : 네트워크 이용 목적이 &quot;구성원&quot;" style="text;html=1;align=center;verticalAlign=middle;whiteSpace=wrap;rounded=0;fillColor=#fad7ac;strokeColor=#b46504;" parent="WIyWlLk6GJQsqaUBKTNV-1" vertex="1">
          <mxGeometry x="1720" y="-710" width="200" height="30" as="geometry" />
        </mxCell>
        <mxCell id="L0u4bfkxbalb-QhjG3vc-0" value="Project&lt;div&gt;Identification&lt;/div&gt;" style="rounded=1;whiteSpace=wrap;html=1;fillColor=#1ba1e2;strokeColor=#006EAF;fontColor=#ffffff;" vertex="1" parent="WIyWlLk6GJQsqaUBKTNV-1">
          <mxGeometry x="3100" y="-1425" width="120" height="60" as="geometry" />
        </mxCell>
        <mxCell id="L0u4bfkxbalb-QhjG3vc-1" value="숲을 보고 나무를 본다&amp;nbsp;&lt;div&gt;- 프로젝트의 가장 큰 개념이면서 핵심적인 시스템에 대한 플로우차트를 작성함.&lt;/div&gt;" style="rounded=0;whiteSpace=wrap;html=1;" vertex="1" parent="WIyWlLk6GJQsqaUBKTNV-1">
          <mxGeometry x="3250" y="-1425" width="250" height="60" as="geometry" />
        </mxCell>
        <mxCell id="L0u4bfkxbalb-QhjG3vc-4" style="edgeStyle=orthogonalEdgeStyle;rounded=0;orthogonalLoop=1;jettySize=auto;html=1;entryX=0.5;entryY=0;entryDx=0;entryDy=0;" edge="1" parent="WIyWlLk6GJQsqaUBKTNV-1" source="L0u4bfkxbalb-QhjG3vc-2" target="L0u4bfkxbalb-QhjG3vc-3">
          <mxGeometry relative="1" as="geometry" />
        </mxCell>
        <mxCell id="L0u4bfkxbalb-QhjG3vc-2" value="App 실행" style="rounded=1;whiteSpace=wrap;html=1;" vertex="1" parent="WIyWlLk6GJQsqaUBKTNV-1">
          <mxGeometry x="3188" y="-1333" width="120" height="60" as="geometry" />
        </mxCell>
        <mxCell id="L0u4bfkxbalb-QhjG3vc-6" value="" style="edgeStyle=orthogonalEdgeStyle;rounded=0;orthogonalLoop=1;jettySize=auto;html=1;" edge="1" parent="WIyWlLk6GJQsqaUBKTNV-1" source="L0u4bfkxbalb-QhjG3vc-3" target="L0u4bfkxbalb-QhjG3vc-5">
          <mxGeometry relative="1" as="geometry" />
        </mxCell>
        <mxCell id="L0u4bfkxbalb-QhjG3vc-3" value="Login 장면" style="rounded=1;whiteSpace=wrap;html=1;" vertex="1" parent="WIyWlLk6GJQsqaUBKTNV-1">
          <mxGeometry x="3188" y="-1239" width="120" height="60" as="geometry" />
        </mxCell>
        <mxCell id="L0u4bfkxbalb-QhjG3vc-8" style="edgeStyle=orthogonalEdgeStyle;rounded=0;orthogonalLoop=1;jettySize=auto;html=1;entryX=0.5;entryY=0;entryDx=0;entryDy=0;" edge="1" parent="WIyWlLk6GJQsqaUBKTNV-1" source="L0u4bfkxbalb-QhjG3vc-5" target="L0u4bfkxbalb-QhjG3vc-7">
          <mxGeometry relative="1" as="geometry" />
        </mxCell>
        <mxCell id="L0u4bfkxbalb-QhjG3vc-5" value="Lobby 장면" style="rounded=1;whiteSpace=wrap;html=1;" vertex="1" parent="WIyWlLk6GJQsqaUBKTNV-1">
          <mxGeometry x="3188" y="-1148" width="120" height="60" as="geometry" />
        </mxCell>
        <mxCell id="L0u4bfkxbalb-QhjG3vc-11" style="edgeStyle=orthogonalEdgeStyle;rounded=0;orthogonalLoop=1;jettySize=auto;html=1;entryX=0;entryY=0.5;entryDx=0;entryDy=0;" edge="1" parent="WIyWlLk6GJQsqaUBKTNV-1" source="L0u4bfkxbalb-QhjG3vc-7" target="L0u4bfkxbalb-QhjG3vc-5">
          <mxGeometry relative="1" as="geometry">
            <Array as="points">
              <mxPoint x="3168" y="-1020" />
              <mxPoint x="3168" y="-1118" />
            </Array>
          </mxGeometry>
        </mxCell>
        <mxCell id="L0u4bfkxbalb-QhjG3vc-7" value="PlayGame 장면" style="rounded=1;whiteSpace=wrap;html=1;" vertex="1" parent="WIyWlLk6GJQsqaUBKTNV-1">
          <mxGeometry x="3188" y="-1050" width="120" height="60" as="geometry" />
        </mxCell>
        <mxCell id="L0u4bfkxbalb-QhjG3vc-12" value="Login 장면" style="rounded=1;whiteSpace=wrap;html=1;" vertex="1" parent="WIyWlLk6GJQsqaUBKTNV-1">
          <mxGeometry x="3400" y="-1336" width="120" height="60" as="geometry" />
        </mxCell>
        <mxCell id="L0u4bfkxbalb-QhjG3vc-18" style="edgeStyle=orthogonalEdgeStyle;rounded=0;orthogonalLoop=1;jettySize=auto;html=1;entryX=0.5;entryY=0;entryDx=0;entryDy=0;" edge="1" parent="WIyWlLk6GJQsqaUBKTNV-1" source="L0u4bfkxbalb-QhjG3vc-13" target="L0u4bfkxbalb-QhjG3vc-14">
          <mxGeometry relative="1" as="geometry" />
        </mxCell>
        <mxCell id="L0u4bfkxbalb-QhjG3vc-13" value="Login 시도" style="rounded=1;whiteSpace=wrap;html=1;" vertex="1" parent="WIyWlLk6GJQsqaUBKTNV-1">
          <mxGeometry x="3470" y="-1264.5" width="120" height="60" as="geometry" />
        </mxCell>
        <mxCell id="L0u4bfkxbalb-QhjG3vc-19" style="edgeStyle=orthogonalEdgeStyle;rounded=0;orthogonalLoop=1;jettySize=auto;html=1;" edge="1" parent="WIyWlLk6GJQsqaUBKTNV-1" source="L0u4bfkxbalb-QhjG3vc-14" target="L0u4bfkxbalb-QhjG3vc-15">
          <mxGeometry relative="1" as="geometry" />
        </mxCell>
        <mxCell id="L0u4bfkxbalb-QhjG3vc-14" value="ID 및 PW 가 유효한지" style="rhombus;whiteSpace=wrap;html=1;" vertex="1" parent="WIyWlLk6GJQsqaUBKTNV-1">
          <mxGeometry x="3450" y="-1168" width="160" height="80" as="geometry" />
        </mxCell>
        <mxCell id="L0u4bfkxbalb-QhjG3vc-20" style="edgeStyle=orthogonalEdgeStyle;rounded=0;orthogonalLoop=1;jettySize=auto;html=1;entryX=0.5;entryY=0;entryDx=0;entryDy=0;" edge="1" parent="WIyWlLk6GJQsqaUBKTNV-1" source="L0u4bfkxbalb-QhjG3vc-15" target="L0u4bfkxbalb-QhjG3vc-17">
          <mxGeometry relative="1" as="geometry" />
        </mxCell>
        <mxCell id="L0u4bfkxbalb-QhjG3vc-15" value="ID 및 PW 로 인증 시도" style="rhombus;whiteSpace=wrap;html=1;" vertex="1" parent="WIyWlLk6GJQsqaUBKTNV-1">
          <mxGeometry x="3450" y="-1060" width="160" height="80" as="geometry" />
        </mxCell>
        <mxCell id="L0u4bfkxbalb-QhjG3vc-22" style="edgeStyle=orthogonalEdgeStyle;rounded=0;orthogonalLoop=1;jettySize=auto;html=1;entryX=0;entryY=0.5;entryDx=0;entryDy=0;" edge="1" parent="WIyWlLk6GJQsqaUBKTNV-1" source="L0u4bfkxbalb-QhjG3vc-17" target="L0u4bfkxbalb-QhjG3vc-21">
          <mxGeometry relative="1" as="geometry" />
        </mxCell>
        <mxCell id="L0u4bfkxbalb-QhjG3vc-24" style="edgeStyle=orthogonalEdgeStyle;rounded=0;orthogonalLoop=1;jettySize=auto;html=1;entryX=0.5;entryY=0;entryDx=0;entryDy=0;" edge="1" parent="WIyWlLk6GJQsqaUBKTNV-1" source="L0u4bfkxbalb-QhjG3vc-17" target="L0u4bfkxbalb-QhjG3vc-23">
          <mxGeometry relative="1" as="geometry" />
        </mxCell>
        <mxCell id="L0u4bfkxbalb-QhjG3vc-17" value="User 의 Profile data가&amp;nbsp;&lt;br&gt;존재하는가?" style="rhombus;whiteSpace=wrap;html=1;" vertex="1" parent="WIyWlLk6GJQsqaUBKTNV-1">
          <mxGeometry x="3450" y="-950" width="160" height="80" as="geometry" />
        </mxCell>
        <mxCell id="L0u4bfkxbalb-QhjG3vc-27" style="edgeStyle=orthogonalEdgeStyle;rounded=0;orthogonalLoop=1;jettySize=auto;html=1;entryX=0.5;entryY=0;entryDx=0;entryDy=0;" edge="1" parent="WIyWlLk6GJQsqaUBKTNV-1" source="L0u4bfkxbalb-QhjG3vc-21" target="L0u4bfkxbalb-QhjG3vc-26">
          <mxGeometry relative="1" as="geometry" />
        </mxCell>
        <mxCell id="L0u4bfkxbalb-QhjG3vc-21" value="닉네임 설정창 팝업" style="rounded=1;whiteSpace=wrap;html=1;" vertex="1" parent="WIyWlLk6GJQsqaUBKTNV-1">
          <mxGeometry x="3650" y="-940" width="120" height="60" as="geometry" />
        </mxCell>
        <mxCell id="L0u4bfkxbalb-QhjG3vc-23" value="Lobby 장면 전환" style="rounded=1;whiteSpace=wrap;html=1;" vertex="1" parent="WIyWlLk6GJQsqaUBKTNV-1">
          <mxGeometry x="3470" y="-460" width="120" height="60" as="geometry" />
        </mxCell>
        <mxCell id="L0u4bfkxbalb-QhjG3vc-32" style="edgeStyle=orthogonalEdgeStyle;rounded=0;orthogonalLoop=1;jettySize=auto;html=1;entryX=0.5;entryY=0;entryDx=0;entryDy=0;" edge="1" parent="WIyWlLk6GJQsqaUBKTNV-1" source="L0u4bfkxbalb-QhjG3vc-26" target="L0u4bfkxbalb-QhjG3vc-30">
          <mxGeometry relative="1" as="geometry" />
        </mxCell>
        <mxCell id="L0u4bfkxbalb-QhjG3vc-26" value="닉네임 설정 시도" style="rounded=1;whiteSpace=wrap;html=1;" vertex="1" parent="WIyWlLk6GJQsqaUBKTNV-1">
          <mxGeometry x="3650" y="-850" width="120" height="60" as="geometry" />
        </mxCell>
        <mxCell id="L0u4bfkxbalb-QhjG3vc-33" style="edgeStyle=orthogonalEdgeStyle;rounded=0;orthogonalLoop=1;jettySize=auto;html=1;" edge="1" parent="WIyWlLk6GJQsqaUBKTNV-1" source="L0u4bfkxbalb-QhjG3vc-30" target="L0u4bfkxbalb-QhjG3vc-31">
          <mxGeometry relative="1" as="geometry" />
        </mxCell>
        <mxCell id="L0u4bfkxbalb-QhjG3vc-30" value="닉네임이 유효한지?" style="rhombus;whiteSpace=wrap;html=1;" vertex="1" parent="WIyWlLk6GJQsqaUBKTNV-1">
          <mxGeometry x="3630" y="-760" width="160" height="80" as="geometry" />
        </mxCell>
        <mxCell id="L0u4bfkxbalb-QhjG3vc-35" style="edgeStyle=orthogonalEdgeStyle;rounded=0;orthogonalLoop=1;jettySize=auto;html=1;entryX=0.5;entryY=0;entryDx=0;entryDy=0;" edge="1" parent="WIyWlLk6GJQsqaUBKTNV-1" source="L0u4bfkxbalb-QhjG3vc-31">
          <mxGeometry relative="1" as="geometry">
            <mxPoint x="3710" y="-560" as="targetPoint" />
          </mxGeometry>
        </mxCell>
        <mxCell id="L0u4bfkxbalb-QhjG3vc-31" value="닉네임 중복 검사" style="rhombus;whiteSpace=wrap;html=1;" vertex="1" parent="WIyWlLk6GJQsqaUBKTNV-1">
          <mxGeometry x="3630" y="-660" width="160" height="80" as="geometry" />
        </mxCell>
        <mxCell id="L0u4bfkxbalb-QhjG3vc-38" style="edgeStyle=orthogonalEdgeStyle;rounded=0;orthogonalLoop=1;jettySize=auto;html=1;" edge="1" parent="WIyWlLk6GJQsqaUBKTNV-1" source="L0u4bfkxbalb-QhjG3vc-36" target="L0u4bfkxbalb-QhjG3vc-23">
          <mxGeometry relative="1" as="geometry" />
        </mxCell>
        <mxCell id="L0u4bfkxbalb-QhjG3vc-36" value="닉네임 저장" style="rounded=1;whiteSpace=wrap;html=1;" vertex="1" parent="WIyWlLk6GJQsqaUBKTNV-1">
          <mxGeometry x="3650" y="-560" width="120" height="60" as="geometry" />
        </mxCell>
        <mxCell id="L0u4bfkxbalb-QhjG3vc-39" value="PlayGame 장면" style="rounded=1;whiteSpace=wrap;html=1;" vertex="1" parent="WIyWlLk6GJQsqaUBKTNV-1">
          <mxGeometry x="3930" y="-1336" width="120" height="60" as="geometry" />
        </mxCell>
        <mxCell id="L0u4bfkxbalb-QhjG3vc-42" style="edgeStyle=orthogonalEdgeStyle;rounded=0;orthogonalLoop=1;jettySize=auto;html=1;entryX=0.5;entryY=0;entryDx=0;entryDy=0;" edge="1" parent="WIyWlLk6GJQsqaUBKTNV-1" source="L0u4bfkxbalb-QhjG3vc-40" target="L0u4bfkxbalb-QhjG3vc-41">
          <mxGeometry relative="1" as="geometry" />
        </mxCell>
        <mxCell id="L0u4bfkxbalb-QhjG3vc-40" value="모든 Player 준비 대기" style="rounded=1;whiteSpace=wrap;html=1;" vertex="1" parent="WIyWlLk6GJQsqaUBKTNV-1">
          <mxGeometry x="4030" y="-1264.5" width="120" height="60" as="geometry" />
        </mxCell>
        <mxCell id="L0u4bfkxbalb-QhjG3vc-44" style="edgeStyle=orthogonalEdgeStyle;rounded=0;orthogonalLoop=1;jettySize=auto;html=1;" edge="1" parent="WIyWlLk6GJQsqaUBKTNV-1" source="L0u4bfkxbalb-QhjG3vc-41" target="L0u4bfkxbalb-QhjG3vc-43">
          <mxGeometry relative="1" as="geometry" />
        </mxCell>
        <mxCell id="L0u4bfkxbalb-QhjG3vc-41" value="모든 Player 준비 완료" style="rhombus;whiteSpace=wrap;html=1;" vertex="1" parent="WIyWlLk6GJQsqaUBKTNV-1">
          <mxGeometry x="4010" y="-1178" width="160" height="80" as="geometry" />
        </mxCell>
        <mxCell id="L0u4bfkxbalb-QhjG3vc-46" style="edgeStyle=orthogonalEdgeStyle;rounded=0;orthogonalLoop=1;jettySize=auto;html=1;entryX=0.5;entryY=0;entryDx=0;entryDy=0;" edge="1" parent="WIyWlLk6GJQsqaUBKTNV-1" source="L0u4bfkxbalb-QhjG3vc-43">
          <mxGeometry relative="1" as="geometry">
            <mxPoint x="4089.999999999999" y="-955" as="targetPoint" />
          </mxGeometry>
        </mxCell>
        <mxCell id="L0u4bfkxbalb-QhjG3vc-43" value="StartGamePlay" style="rounded=1;whiteSpace=wrap;html=1;" vertex="1" parent="WIyWlLk6GJQsqaUBKTNV-1">
          <mxGeometry x="4030" y="-1060" width="120" height="60" as="geometry" />
        </mxCell>
        <mxCell id="L0u4bfkxbalb-QhjG3vc-51" style="edgeStyle=orthogonalEdgeStyle;rounded=0;orthogonalLoop=1;jettySize=auto;html=1;entryX=0.5;entryY=0;entryDx=0;entryDy=0;" edge="1" parent="WIyWlLk6GJQsqaUBKTNV-1" source="L0u4bfkxbalb-QhjG3vc-48" target="L0u4bfkxbalb-QhjG3vc-50">
          <mxGeometry relative="1" as="geometry" />
        </mxCell>
        <mxCell id="L0u4bfkxbalb-QhjG3vc-48" value="FinishGamePlay" style="rounded=1;whiteSpace=wrap;html=1;" vertex="1" parent="WIyWlLk6GJQsqaUBKTNV-1">
          <mxGeometry x="4030" y="-830" width="120" height="60" as="geometry" />
        </mxCell>
        <mxCell id="L0u4bfkxbalb-QhjG3vc-53" style="edgeStyle=orthogonalEdgeStyle;rounded=0;orthogonalLoop=1;jettySize=auto;html=1;" edge="1" parent="WIyWlLk6GJQsqaUBKTNV-1" source="L0u4bfkxbalb-QhjG3vc-50" target="L0u4bfkxbalb-QhjG3vc-52">
          <mxGeometry relative="1" as="geometry" />
        </mxCell>
        <mxCell id="L0u4bfkxbalb-QhjG3vc-50" value="결과 UI 팝업" style="rounded=1;whiteSpace=wrap;html=1;" vertex="1" parent="WIyWlLk6GJQsqaUBKTNV-1">
          <mxGeometry x="4030" y="-725" width="120" height="60" as="geometry" />
        </mxCell>
        <mxCell id="L0u4bfkxbalb-QhjG3vc-55" style="edgeStyle=orthogonalEdgeStyle;rounded=0;orthogonalLoop=1;jettySize=auto;html=1;entryX=0.5;entryY=0;entryDx=0;entryDy=0;" edge="1" parent="WIyWlLk6GJQsqaUBKTNV-1" source="L0u4bfkxbalb-QhjG3vc-52" target="L0u4bfkxbalb-QhjG3vc-54">
          <mxGeometry relative="1" as="geometry" />
        </mxCell>
        <mxCell id="L0u4bfkxbalb-QhjG3vc-52" value="결과 UI 확인" style="rhombus;whiteSpace=wrap;html=1;" vertex="1" parent="WIyWlLk6GJQsqaUBKTNV-1">
          <mxGeometry x="4010" y="-620" width="160" height="80" as="geometry" />
        </mxCell>
        <mxCell id="L0u4bfkxbalb-QhjG3vc-54" value="Lobby 장면 전환" style="rounded=1;whiteSpace=wrap;html=1;" vertex="1" parent="WIyWlLk6GJQsqaUBKTNV-1">
          <mxGeometry x="4030" y="-490" width="120" height="60" as="geometry" />
        </mxCell>
        <mxCell id="L0u4bfkxbalb-QhjG3vc-57" style="edgeStyle=orthogonalEdgeStyle;rounded=0;orthogonalLoop=1;jettySize=auto;html=1;entryX=0.5;entryY=0;entryDx=0;entryDy=0;" edge="1" parent="WIyWlLk6GJQsqaUBKTNV-1" source="L0u4bfkxbalb-QhjG3vc-56" target="L0u4bfkxbalb-QhjG3vc-48">
          <mxGeometry relative="1" as="geometry" />
        </mxCell>
        <mxCell id="L0u4bfkxbalb-QhjG3vc-56" value="DuringGamePlay" style="rounded=1;whiteSpace=wrap;html=1;" vertex="1" parent="WIyWlLk6GJQsqaUBKTNV-1">
          <mxGeometry x="4030" y="-950" width="120" height="60" as="geometry" />
        </mxCell>
        <mxCell id="L0u4bfkxbalb-QhjG3vc-61" value="Interaction" style="rounded=1;whiteSpace=wrap;html=1;fillColor=#1ba1e2;strokeColor=#006EAF;fontColor=#ffffff;" vertex="1" parent="WIyWlLk6GJQsqaUBKTNV-1">
          <mxGeometry x="20" y="-430" width="120" height="60" as="geometry" />
        </mxCell>
        <mxCell id="L0u4bfkxbalb-QhjG3vc-62" value="&lt;div&gt;&amp;lt;&amp;lt;abstract&amp;gt;&amp;gt;&lt;/div&gt;Interactable" style="swimlane;fontStyle=1;align=center;verticalAlign=top;childLayout=stackLayout;horizontal=1;startSize=40;horizontalStack=0;resizeParent=1;resizeParentMax=0;resizeLast=0;collapsible=1;marginBottom=0;whiteSpace=wrap;html=1;" vertex="1" parent="WIyWlLk6GJQsqaUBKTNV-1">
          <mxGeometry x="350" y="-210" width="350" height="178" as="geometry" />
        </mxCell>
        <mxCell id="L0u4bfkxbalb-QhjG3vc-64" value="" style="line;strokeWidth=1;fillColor=none;align=left;verticalAlign=middle;spacingTop=-1;spacingLeft=3;spacingRight=3;rotatable=0;labelPosition=right;points=[];portConstraint=eastwest;strokeColor=inherit;" vertex="1" parent="L0u4bfkxbalb-QhjG3vc-62">
          <mxGeometry y="40" width="350" height="8" as="geometry" />
        </mxCell>
        <mxCell id="L0u4bfkxbalb-QhjG3vc-65" value="+ BeginInteraction(Interactor : Monobehaviour) : void" style="text;strokeColor=none;fillColor=none;align=left;verticalAlign=top;spacingLeft=4;spacingRight=4;overflow=hidden;rotatable=0;points=[[0,0.5],[1,0.5]];portConstraint=eastwest;whiteSpace=wrap;html=1;" vertex="1" parent="L0u4bfkxbalb-QhjG3vc-62">
          <mxGeometry y="48" width="350" height="26" as="geometry" />
        </mxCell>
        <mxCell id="L0u4bfkxbalb-QhjG3vc-70" value="+ DuringInteraction() : void" style="text;strokeColor=none;fillColor=none;align=left;verticalAlign=top;spacingLeft=4;spacingRight=4;overflow=hidden;rotatable=0;points=[[0,0.5],[1,0.5]];portConstraint=eastwest;whiteSpace=wrap;html=1;" vertex="1" parent="L0u4bfkxbalb-QhjG3vc-62">
          <mxGeometry y="74" width="350" height="26" as="geometry" />
        </mxCell>
        <mxCell id="L0u4bfkxbalb-QhjG3vc-71" value="+ EndInteraction() : void" style="text;strokeColor=none;fillColor=none;align=left;verticalAlign=top;spacingLeft=4;spacingRight=4;overflow=hidden;rotatable=0;points=[[0,0.5],[1,0.5]];portConstraint=eastwest;whiteSpace=wrap;html=1;" vertex="1" parent="L0u4bfkxbalb-QhjG3vc-62">
          <mxGeometry y="100" width="350" height="26" as="geometry" />
        </mxCell>
        <mxCell id="L0u4bfkxbalb-QhjG3vc-82" value="+ SetParent(parent : Transform) : void" style="text;strokeColor=none;fillColor=none;align=left;verticalAlign=top;spacingLeft=4;spacingRight=4;overflow=hidden;rotatable=0;points=[[0,0.5],[1,0.5]];portConstraint=eastwest;whiteSpace=wrap;html=1;" vertex="1" parent="L0u4bfkxbalb-QhjG3vc-62">
          <mxGeometry y="126" width="350" height="26" as="geometry" />
        </mxCell>
        <mxCell id="L0u4bfkxbalb-QhjG3vc-83" value="+ ResetParent() : void" style="text;strokeColor=none;fillColor=none;align=left;verticalAlign=top;spacingLeft=4;spacingRight=4;overflow=hidden;rotatable=0;points=[[0,0.5],[1,0.5]];portConstraint=eastwest;whiteSpace=wrap;html=1;" vertex="1" parent="L0u4bfkxbalb-QhjG3vc-62">
          <mxGeometry y="152" width="350" height="26" as="geometry" />
        </mxCell>
        <mxCell id="L0u4bfkxbalb-QhjG3vc-81" style="edgeStyle=orthogonalEdgeStyle;rounded=0;orthogonalLoop=1;jettySize=auto;html=1;" edge="1" parent="WIyWlLk6GJQsqaUBKTNV-1" source="L0u4bfkxbalb-QhjG3vc-72" target="L0u4bfkxbalb-QhjG3vc-62">
          <mxGeometry relative="1" as="geometry" />
        </mxCell>
        <mxCell id="L0u4bfkxbalb-QhjG3vc-72" value="Interactor&lt;div&gt;&lt;/div&gt;" style="swimlane;fontStyle=1;align=center;verticalAlign=top;childLayout=stackLayout;horizontal=1;startSize=30;horizontalStack=0;resizeParent=1;resizeParentMax=0;resizeLast=0;collapsible=1;marginBottom=0;whiteSpace=wrap;html=1;" vertex="1" parent="WIyWlLk6GJQsqaUBKTNV-1">
          <mxGeometry x="80" y="-192" width="190" height="142" as="geometry" />
        </mxCell>
        <mxCell id="L0u4bfkxbalb-QhjG3vc-73" value="+ interactableMask : LayerMask" style="text;strokeColor=none;fillColor=none;align=left;verticalAlign=top;spacingLeft=4;spacingRight=4;overflow=hidden;rotatable=0;points=[[0,0.5],[1,0.5]];portConstraint=eastwest;whiteSpace=wrap;html=1;" vertex="1" parent="L0u4bfkxbalb-QhjG3vc-72">
          <mxGeometry y="30" width="190" height="26" as="geometry" />
        </mxCell>
        <mxCell id="L0u4bfkxbalb-QhjG3vc-80" value="+ interactable : Interactable" style="text;strokeColor=none;fillColor=none;align=left;verticalAlign=top;spacingLeft=4;spacingRight=4;overflow=hidden;rotatable=0;points=[[0,0.5],[1,0.5]];portConstraint=eastwest;whiteSpace=wrap;html=1;" vertex="1" parent="L0u4bfkxbalb-QhjG3vc-72">
          <mxGeometry y="56" width="190" height="26" as="geometry" />
        </mxCell>
        <mxCell id="L0u4bfkxbalb-QhjG3vc-74" value="" style="line;strokeWidth=1;fillColor=none;align=left;verticalAlign=middle;spacingTop=-1;spacingLeft=3;spacingRight=3;rotatable=0;labelPosition=right;points=[];portConstraint=eastwest;strokeColor=inherit;" vertex="1" parent="L0u4bfkxbalb-QhjG3vc-72">
          <mxGeometry y="82" width="190" height="8" as="geometry" />
        </mxCell>
        <mxCell id="L0u4bfkxbalb-QhjG3vc-78" value="+ CastInteractable() : Interactable" style="text;strokeColor=none;fillColor=none;align=left;verticalAlign=top;spacingLeft=4;spacingRight=4;overflow=hidden;rotatable=0;points=[[0,0.5],[1,0.5]];portConstraint=eastwest;whiteSpace=wrap;html=1;" vertex="1" parent="L0u4bfkxbalb-QhjG3vc-72">
          <mxGeometry y="90" width="190" height="26" as="geometry" />
        </mxCell>
        <mxCell id="L0u4bfkxbalb-QhjG3vc-79" value="+ TryInteraction() : bool" style="text;strokeColor=none;fillColor=none;align=left;verticalAlign=top;spacingLeft=4;spacingRight=4;overflow=hidden;rotatable=0;points=[[0,0.5],[1,0.5]];portConstraint=eastwest;whiteSpace=wrap;html=1;" vertex="1" parent="L0u4bfkxbalb-QhjG3vc-72">
          <mxGeometry y="116" width="190" height="26" as="geometry" />
        </mxCell>
        <mxCell id="L0u4bfkxbalb-QhjG3vc-84" value="CharacterController" style="swimlane;fontStyle=1;align=center;verticalAlign=top;childLayout=stackLayout;horizontal=1;startSize=26;horizontalStack=0;resizeParent=1;resizeParentMax=0;resizeLast=0;collapsible=1;marginBottom=0;whiteSpace=wrap;html=1;" vertex="1" parent="WIyWlLk6GJQsqaUBKTNV-1">
          <mxGeometry x="80" y="-350" width="160" height="60" as="geometry" />
        </mxCell>
        <mxCell id="L0u4bfkxbalb-QhjG3vc-86" value="" style="line;strokeWidth=1;fillColor=none;align=left;verticalAlign=middle;spacingTop=-1;spacingLeft=3;spacingRight=3;rotatable=0;labelPosition=right;points=[];portConstraint=eastwest;strokeColor=inherit;" vertex="1" parent="L0u4bfkxbalb-QhjG3vc-84">
          <mxGeometry y="26" width="160" height="8" as="geometry" />
        </mxCell>
        <mxCell id="L0u4bfkxbalb-QhjG3vc-87" value="+ Move() : void" style="text;strokeColor=none;fillColor=none;align=left;verticalAlign=top;spacingLeft=4;spacingRight=4;overflow=hidden;rotatable=0;points=[[0,0.5],[1,0.5]];portConstraint=eastwest;whiteSpace=wrap;html=1;" vertex="1" parent="L0u4bfkxbalb-QhjG3vc-84">
          <mxGeometry y="34" width="160" height="26" as="geometry" />
        </mxCell>
      </root>
    </mxGraphModel>
  </diagram>
</mxfile>
